<?xml version="1.0" standalone="no"?>
<!DOCTYPE svg PUBLIC "-//W3C//DTD SVG 20010904//EN"
 "http://www.w3.org/TR/2001/REC-SVG-20010904/DTD/svg10.dtd">
<svg version="1.0" xmlns="http://www.w3.org/2000/svg"
 width="1200.000000pt" height="1200.000000pt" viewBox="0 0 1200.000000 1200.000000"
 preserveAspectRatio="xMidYMid meet">
<metadata>
Created by potrace 1.14, written by Peter Selinger 2001-2017
</metadata>
<g transform="translate(0.000000,1200.000000) scale(0.100000,-0.100000)"
fill="#000000" stroke="none">
<path d="M3221 8689 c-50 -15 -131 -70 -170 -114 -95 -108 -113 -272 -44 -409
20 -40 216 -243 914 -941 l889 -890 -890 -890 c-701 -700 -896 -901 -915 -940
-92 -187 -18 -407 168 -495 105 -50 221 -48 332 7 39 20 273 248 1087 1061
1127 1126 1076 1071 1098 1204 10 65 -4 157 -33 218 -16 34 -281 306 -1061
1087 -1173 1176 -1094 1105 -1251 1110 -49 1 -105 -2 -124 -8z"/>
<path d="M5903 4025 c-115 -31 -211 -119 -253 -232 -30 -79 -25 -194 11 -273
49 -106 152 -185 274 -210 34 -7 501 -10 1425 -8 l1375 3 60 24 c83 33 173
124 205 206 32 82 32 187 0 270 -31 82 -122 173 -205 206 l-60 24 -1390 2
c-1165 2 -1398 0 -1442 -12z"/>
</g>
</svg>
